<svg height="512pt" viewBox="-11 0 512 512" width="512pt" xmlns="http://www.w3.org/2000/svg"><path d="m490.539062 200.679688v311.320312h-490.539062v-311.320312l245.269531-192.351563zm0 0" fill="#c2001b"/><path d="m490.539062 200.679688v311.320312h-245.097656c-.113281-.648438-.171875-1.320312-.171875-2v-501.671875zm0 0" fill="#901"/><path d="m73.96875 0h342.601562v415.679688h-342.601562zm0 0" fill="#e1e1e3"/><path d="m245.269531 0h171.300781v415.679688h-171.300781zm0 0" fill="#d9d9db"/><path d="m490.539062 200.789062v311.210938h-490.539062v-311.210938l245.269531 192.351563zm0 0" fill="#ff3800"/><path d="m490.539062 200.789062v311.210938h-245.097656c-.113281-.648438-.171875-1.320312-.171875-2v-116.859375zm0 0" fill="#c2001b"/><path d="m302.25 184.121094 13.449219 78.417968-70.429688-37.019531-70.429687 37.019531 13.449218-78.417968-56.980468-55.550782 78.742187-11.441406 35.21875-71.359375 35.21875 71.359375 78.742188 11.441406zm0 0" fill="#fec000"/><path d="m302.25 184.121094 13.449219 78.417968-70.429688-37.019531v-179.75l35.21875 71.359375 78.742188 11.441406zm0 0" fill="#ff8900"/></svg>